/usr/bin/ffmpeg -hide_banner -y -y -r 24 -start_number 0 -start_number_range 1 -i /home/coal/projects/sea-island/client/assets/characters/celia/idle%04d.png -i /home/coal/projects/sea-island/krita/KritaTempPalettegen_%06d.png -lavfi scale=w=640:h=640:flags=neighbor[0:v];[0:v][1:v]paletteuse=dither=sierra2_4a:diff_mode=none -f gif -loop 0 -gifflags +transdiff /home/coal/projects/sea-island/krita/celia.gif
=====================================================
Input #0, image2, from '/home/coal/projects/sea-island/client/assets/characters/celia/idle%04d.png':
  Duration: 00:00:00.40, start: 0.000000, bitrate: N/A
  Stream #0:0: Video: png, rgba(pc, gbr/unknown/unknown), 16x16 [SAR 3937:3937 DAR 1:1], 25 fps, 25 tbr, 25 tbn
Input #1, image2, from '/home/coal/projects/sea-island/krita/KritaTempPalettegen_%06d.png':
  Duration: 00:00:00.04, start: 0.000000, bitrate: N/A
  Stream #1:0: Video: png, rgba(pc, gbr/unknown/unknown), 16x16 [SAR 1:1 DAR 1:1], 25 fps, 25 tbr, 25 tbn
Stream mapping:
  Stream #0:0 (png) -> scale:default
  Stream #1:0 (png) -> paletteuse
  paletteuse:default -> Stream #0:0 (gif)
Press [q] to stop, [?] for help
Output #0, gif, to '/home/coal/projects/sea-island/krita/celia.gif':
  Metadata:
    encoder         : Lavf61.1.100
  Stream #0:0: Video: gif, pal8(pc, gbr/unknown/unknown, progressive), 640x640 [SAR 1:1 DAR 1:1], q=2-31, 200 kb/s, 24 fps, 100 tbn
      Metadata:
        encoder         : Lavc61.3.100 gif
[out#0/gif @ 0x606457fe3500] video:83KiB audio:0KiB subtitle:0KiB other streams:0KiB global headers:0KiB muxing overhead: 0.023645%
frame=   10 fps=0.0 q=-0.0 Lsize=      83KiB time=00:00:00.41 bitrate=1624.4kbits/s speed=4.77x    
